{
  "accessors": [
    {
      "bufferView": 2,
      "componentType": 5126,
      "count": 65532,
      "max": [
        2.943950891494751,
        1.1588059663772583,
        0.77274602651596069
      ],
      "min": [
        -2.846121072769165,
        -1.1498039960861206,
        -0.74769002199172974
      ],
      "type": "VEC3"
    },
    {
      "bufferView": 2,
      "byteOffset": 786384,
      "componentType": 5126,
      "count": 65532,
      "max": [
        0.99984216690063477,
        0.99999964237213135,
        0.99999892711639404
      ],
      "min": [
        -0.99999886751174927,
        -0.9999997615814209,
        -0.99750709533691406
      ],
      "type": "VEC3"
    },
    {
      "bufferView": 3,
      "componentType": 5126,
      "count": 65532,
      "max": [
        0.99998849630355835,
        0.98974990844726562,
        0.99994128942489624,
        1
      ],
      "min": [
        -0.99998468160629272,
        -0.99831229448318481,
        -0.99999338388442993,
        -1
      ],
      "type": "VEC4"
    },
    {
      "bufferView": 1,
      "componentType": 5126,
      "count": 65532,
      "max": [
        0.97186297178268433,
        0.97888100147247314
      ],
      "min": [
        0.0036279999185353518,
        0.0038199999835342169
      ],
      "type": "VEC2"
    },
    {
      "bufferView": 0,
      "componentType": 5125,
      "count": 356928,
      "max": [
        65531
      ],
      "min": [
        0
      ],
      "type": "SCALAR"
    },
    {
      "bufferView": 2,
      "byteOffset": 1572768,
      "componentType": 5126,
      "count": 65532,
      "max": [
        2.9349040985107422,
        1.1586509943008423,
        0.26623299717903137
      ],
      "min": [
        -2.9444990158081055,
        -1.1588059663772583,
        -0.77274602651596069
      ],
      "type": "VEC3"
    },
    {
      "bufferView": 2,
      "byteOffset": 2359152,
      "componentType": 5126,
      "count": 65532,
      "max": [
        0.99999904632568359,
        0.9999815821647644,
        0.99999773502349854
      ],
      "min": [
        -0.99999427795410156,
        -0.99999749660491943,
        -0.99999904632568359
      ],
      "type": "VEC3"
    },
    {
      "bufferView": 3,
      "byteOffset": 1048512,
      "componentType": 5126,
      "count": 65532,
      "max": [
        0.9995272159576416,
        0.99999970197677612,
        0.99999910593032837,
        1
      ],
      "min": [
        -0.99996805191040039,
        -0.99982351064682007,
        -0.99997621774673462,
        -1
      ],
      "type": "VEC4"
    },
    {
      "bufferView": 1,
      "byteOffset": 524256,
      "componentType": 5126,
      "count": 65532,
      "max": [
        0.99515998363494873,
        0.99589300155639648
      ],
      "min": [
        0.0079460004344582558,
        0.0036309999413788319
      ],
      "type": "VEC2"
    },
    {
      "bufferView": 0,
      "byteOffset": 1427712,
      "componentType": 5125,
      "count": 325446,
      "max": [
        65531
      ],
      "min": [
        0
      ],
      "type": "SCALAR"
    },
    {
      "bufferView": 2,
      "byteOffset": 3145536,
      "componentType": 5126,
      "count": 19672,
      "max": [
        2.9444990158081055,
        1.1369040012359619,
        0.77048099040985107
      ],
      "min": [
        -2.8811349868774414,
        -0.61437797546386719,
        -0.77157497406005859
      ],
      "type": "VEC3"
    },
    {
      "bufferView": 2,
      "byteOffset": 3381600,
      "componentType": 5126,
      "count": 19672,
      "max": [
        0.99984204769134521,
        0.99992269277572632,
        0.99852782487869263
      ],
      "min": [
        -0.99999809265136719,
        -0.9996991753578186,
        -0.99999868869781494
      ],
      "type": "VEC3"
    },
    {
      "bufferView": 3,
      "byteOffset": 2097024,
      "componentType": 5126,
      "count": 19672,
      "max": [
        0.99979454278945923,
        0.99999970197677612,
        0.99966001510620117,
        1
      ],
      "min": [
        -0.99999988079071045,
        -0.99834573268890381,
        -0.99999266862869263,
        -1
      ],
      "type": "VEC4"
    },
    {
      "bufferView": 1,
      "byteOffset": 1048512,
      "componentType": 5126,
      "count": 19672,
      "max": [
        0.94294899702072144,
        0.98082399368286133
      ],
      "min": [
        0.0072639998979866505,
        0.22388400137424469
      ],
      "type": "VEC2"
    },
    {
      "bufferView": 0,
      "byteOffset": 2729496,
      "componentType": 5125,
      "count": 85404,
      "max": [
        19671
      ],
      "min": [
        0
      ],
      "type": "SCALAR"
    }
  ],
  "asset": {
    "extras": {
      "author": "The British Museum (https://sketchfab.com/britishmuseum)",
      "license": "CC-BY-NC-SA-4.0 (http://creativecommons.org/licenses/by-nc-sa/4.0/)",
      "source": "https://sketchfab.com/3d-models/the-lancaster-cross-75b7e6e7760a43bc8633f619490ed691",
      "title": "The Lancaster cross"
    },
    "generator": "Sketchfab-6.0.0",
    "version": "2.0"
  },
  "bufferViews": [
    {
      "buffer": 0,
      "byteLength": 3071112,
      "byteOffset": 0,
      "name": "floatBufferViews",
      "target": 34963
    },
    {
      "buffer": 0,
      "byteLength": 1205888,
      "byteOffset": 3071112,
      "byteStride": 8,
      "name": "floatBufferViews",
      "target": 34962
    },
    {
      "buffer": 0,
      "byteLength": 3617664,
      "byteOffset": 4277000,
      "byteStride": 12,
      "name": "floatBufferViews",
      "target": 34962
    },
    {
      "buffer": 0,
      "byteLength": 2411776,
      "byteOffset": 7894664,
      "byteStride": 16,
      "name": "floatBufferViews",
      "target": 34962
    }
  ],
  "buffers": [
    {
      "byteLength": 10306440,
      "uri": "scene.bin"
    }
  ],
  "images": [
    {
      "uri": "textures/model_baseColor.jpeg"
    }
  ],
  "materials": [
    {
      "doubleSided": true,
      "emissiveFactor": [
        0,
        0,
        0
      ],
      "name": "model",
      "pbrMetallicRoughness": {
        "baseColorFactor": [
          1,
          1,
          1,
          1
        ],
        "baseColorTexture": {
          "index": 0,
          "texCoord": 0
        },
        "metallicFactor": 0,
        "roughnessFactor": 0.59999999999999998
      }
    }
  ],
  "meshes": [
    {
      "primitives": [
        {
          "attributes": {
            "NORMAL": 1,
            "POSITION": 0,
            "TANGENT": 2,
            "TEXCOORD_0": 3
          },
          "indices": 4,
          "material": 0,
          "mode": 4
        }
      ]
    },
    {
      "primitives": [
        {
          "attributes": {
            "NORMAL": 6,
            "POSITION": 5,
            "TANGENT": 7,
            "TEXCOORD_0": 8
          },
          "indices": 9,
          "material": 0,
          "mode": 4
        }
      ]
    },
    {
      "primitives": [
        {
          "attributes": {
            "NORMAL": 11,
            "POSITION": 10,
            "TANGENT": 12,
            "TEXCOORD_0": 13
          },
          "indices": 14,
          "material": 0,
          "mode": 4
        }
      ]
    }
  ],
  "nodes": [
    {
      "children": [
        1
      ],
      "name": "RootNode (gltf orientation matrix)",
      "rotation": [
        -0.70710678118654746,
        -0,
        -0,
        0.70710678118654757
      ]
    },
    {
      "children": [
        2
      ],
      "matrix": [
        -0.10507285594940186,
        -0.02124452032148838,
        -0.99423760175704956,
        0,
        -0.78785353899002075,
        0.61185002326965332,
        0.070188015699386597,
        0,
        0.60683315992355347,
        0.79068845510482788,
        -0.08102639764547348,
        0,
        -1.1043014637834858e-05,
        -5.5089736861191341e-07,
        -9.2282652985886671e-06,
        1
      ],
      "name": "RootNode (model correction matrix)"
    },
    {
      "children": [
        3,
        4,
        5
      ],
      "name": "model.obj.cleaner.materialmerger.gles"
    },
    {
      "mesh": 0,
      "name": ""
    },
    {
      "mesh": 1,
      "name": ""
    },
    {
      "mesh": 2,
      "name": ""
    }
  ],
  "samplers": [
    {
      "magFilter": 9729,
      "minFilter": 9987,
      "wrapS": 10497,
      "wrapT": 10497
    }
  ],
  "scene": 0,
  "scenes": [
    {
      "name": "OSG_Scene",
      "nodes": [
        0
      ]
    }
  ],
  "textures": [
    {
      "sampler": 0,
      "source": 0
    }
  ]
}

